G04 Layer_Physical_Order=2*
G04 Layer_Color=16711680*
%FSLAX25Y25*%
%MOIN*%
G70*
G01*
G75*
%ADD16C,0.01000*%
%ADD17C,0.04000*%
%ADD18C,0.00600*%
%ADD19R,0.06000X0.06000*%
%ADD20C,0.06000*%
%ADD21R,0.06000X0.06000*%
%ADD22C,0.02200*%
%ADD23C,0.03000*%
%ADD24R,0.04724X0.05512*%
%ADD25R,0.04000X0.01700*%
%ADD26R,0.05512X0.04724*%
%ADD27R,0.04134X0.08465*%
%ADD28R,0.13386X0.08465*%
%ADD29R,0.04134X0.08465*%
G36*
X76000Y50000D02*
X99000D01*
Y48671D01*
X98500Y48404D01*
X98178Y48619D01*
X97300Y48794D01*
X96422Y48619D01*
X95678Y48122D01*
X95181Y47378D01*
X95006Y46500D01*
X95181Y45622D01*
X95678Y44878D01*
X96422Y44381D01*
X97300Y44206D01*
X98178Y44381D01*
X98500Y44596D01*
X99000Y44328D01*
Y17672D01*
X98500Y17404D01*
X98178Y17619D01*
X97300Y17794D01*
X96422Y17619D01*
X95678Y17122D01*
X95256Y16491D01*
X94756Y16611D01*
Y23162D01*
X89801D01*
X88881Y24081D01*
X88385Y24413D01*
X87800Y24529D01*
X83485D01*
X83302Y24802D01*
X82476Y25355D01*
X81500Y25549D01*
X80524Y25355D01*
X80029Y25024D01*
X79529Y25291D01*
Y31000D01*
X79413Y31585D01*
X79081Y32081D01*
X76007Y35156D01*
X75511Y35488D01*
X74925Y35604D01*
X70248D01*
Y39074D01*
X68777D01*
Y48752D01*
X68661Y49337D01*
X68330Y49833D01*
X61081Y57081D01*
X60585Y57413D01*
X60000Y57529D01*
X54696D01*
X54494Y58017D01*
X53853Y58853D01*
X53017Y59494D01*
X52044Y59897D01*
X51000Y60035D01*
X49956Y59897D01*
X48983Y59494D01*
X48147Y58853D01*
X47506Y58017D01*
X47103Y57044D01*
X46966Y56000D01*
X47103Y54956D01*
X47506Y53983D01*
X48147Y53147D01*
X48983Y52506D01*
X49956Y52103D01*
X51000Y51965D01*
X52044Y52103D01*
X53017Y52506D01*
X53853Y53147D01*
X54494Y53983D01*
X54696Y54471D01*
X59367D01*
X65719Y48118D01*
Y39074D01*
X64248D01*
Y38912D01*
X63748Y38863D01*
X63665Y39281D01*
X63333Y39777D01*
X62455Y40656D01*
X61959Y40987D01*
X61373Y41104D01*
X56975D01*
X56805Y41604D01*
X57140Y41860D01*
X57621Y42487D01*
X57923Y43217D01*
X58026Y44000D01*
X57923Y44783D01*
X57621Y45513D01*
X57140Y46140D01*
X56513Y46621D01*
X55783Y46923D01*
X55000Y47026D01*
X49622D01*
Y49437D01*
X43488D01*
Y41667D01*
X43026Y41476D01*
X40567Y43935D01*
Y49437D01*
X39029D01*
Y57621D01*
X38913Y58207D01*
X38581Y58703D01*
X36746Y60538D01*
X36937Y61000D01*
X76000D01*
Y50000D01*
D02*
G37*
G36*
X10410Y51944D02*
X10198Y51802D01*
X9645Y50976D01*
X9451Y50000D01*
X9500Y49754D01*
X9046Y49472D01*
X9017Y49494D01*
X8044Y49897D01*
X7000Y50034D01*
X5956Y49897D01*
X4983Y49494D01*
X4147Y48853D01*
X3506Y48017D01*
X3103Y47044D01*
X2966Y46000D01*
X3103Y44956D01*
X3506Y43983D01*
X4147Y43147D01*
X4983Y42506D01*
X5956Y42103D01*
X7000Y41965D01*
X8044Y42103D01*
X8532Y42305D01*
X10471Y40367D01*
Y38826D01*
X9997Y38665D01*
X9853Y38853D01*
X9017Y39494D01*
X8044Y39897D01*
X7000Y40034D01*
X5956Y39897D01*
X4983Y39494D01*
X4147Y38853D01*
X3506Y38017D01*
X3103Y37044D01*
X2966Y36000D01*
X3103Y34956D01*
X3506Y33983D01*
X4147Y33147D01*
X4983Y32506D01*
X5956Y32103D01*
X7000Y31966D01*
X8044Y32103D01*
X9017Y32506D01*
X9853Y33147D01*
X9994Y33332D01*
X10529Y33207D01*
X10587Y32915D01*
X10919Y32419D01*
X13419Y29919D01*
X13915Y29587D01*
X14207Y29529D01*
X14332Y28994D01*
X14147Y28853D01*
X13506Y28017D01*
X13103Y27044D01*
X12966Y26000D01*
X13103Y24956D01*
X13506Y23983D01*
X13854Y23529D01*
X13607Y23029D01*
X12133D01*
X10695Y24468D01*
X10897Y24956D01*
X11034Y26000D01*
X10897Y27044D01*
X10494Y28017D01*
X9853Y28853D01*
X9017Y29494D01*
X8044Y29897D01*
X7000Y30035D01*
X5956Y29897D01*
X4983Y29494D01*
X4147Y28853D01*
X3506Y28017D01*
X3103Y27044D01*
X2966Y26000D01*
X3103Y24956D01*
X3506Y23983D01*
X4147Y23147D01*
X4983Y22506D01*
X5956Y22103D01*
X7000Y21966D01*
X8044Y22103D01*
X8532Y22305D01*
X10419Y20419D01*
X10915Y20087D01*
X11500Y19971D01*
X13000D01*
Y14033D01*
X12538Y13841D01*
X10958Y15421D01*
X11034Y16000D01*
X10897Y17044D01*
X10494Y18017D01*
X9853Y18853D01*
X9017Y19494D01*
X8044Y19897D01*
X7000Y20034D01*
X5956Y19897D01*
X4983Y19494D01*
X4147Y18853D01*
X3506Y18017D01*
X3103Y17044D01*
X2966Y16000D01*
X3103Y14956D01*
X3506Y13983D01*
X4147Y13147D01*
X4983Y12506D01*
X5550Y12271D01*
X9960Y7860D01*
X10587Y7379D01*
X11317Y7077D01*
X12100Y6974D01*
X25000D01*
X25783Y7077D01*
X26513Y7379D01*
X26552Y7409D01*
X27000Y7188D01*
Y2000D01*
X35000D01*
Y7765D01*
X35441Y8001D01*
X35524Y7945D01*
X36500Y7751D01*
X37475Y7945D01*
X38302Y8498D01*
X38683Y9067D01*
X39167Y9190D01*
X39286Y9138D01*
X40025Y8645D01*
X41000Y8451D01*
X41976Y8645D01*
X42802Y9198D01*
X42985Y9471D01*
X48175D01*
X48335Y8997D01*
X48147Y8853D01*
X47506Y8017D01*
X47103Y7044D01*
X46966Y6000D01*
X47103Y4956D01*
X47506Y3983D01*
X48147Y3147D01*
X48983Y2506D01*
X49956Y2103D01*
X51000Y1966D01*
X52044Y2103D01*
X53017Y2506D01*
X53853Y3147D01*
X54101Y3471D01*
X64243D01*
X64828Y3587D01*
X65324Y3919D01*
X66617Y5212D01*
X67090Y5051D01*
X67103Y4956D01*
X67506Y3983D01*
X68147Y3147D01*
X68983Y2506D01*
X69956Y2103D01*
X71000Y1966D01*
X72044Y2103D01*
X73017Y2506D01*
X73853Y3147D01*
X74494Y3983D01*
X74714Y4513D01*
X75085Y4587D01*
X75581Y4919D01*
X79081Y8419D01*
X79413Y8915D01*
X79529Y9500D01*
Y20709D01*
X80029Y20976D01*
X80524Y20645D01*
X81500Y20451D01*
X82476Y20645D01*
X83302Y21198D01*
X83485Y21471D01*
X87167D01*
X87244Y21393D01*
Y18080D01*
X86858Y17763D01*
X86700Y17794D01*
X85822Y17619D01*
X85078Y17122D01*
X84581Y16378D01*
X84406Y15500D01*
X84581Y14622D01*
X85078Y13878D01*
X85822Y13381D01*
X86700Y13206D01*
X86858Y13237D01*
X87244Y12920D01*
Y7438D01*
X94756D01*
Y14162D01*
X89043D01*
X88839Y14543D01*
X88827Y14662D01*
X88994Y15500D01*
X88907Y15938D01*
X89317Y16438D01*
X94683D01*
X95134Y16143D01*
X95006Y15500D01*
X95181Y14622D01*
X95678Y13878D01*
X96422Y13381D01*
X97300Y13206D01*
X98178Y13381D01*
X98500Y13596D01*
X99000Y13329D01*
Y1000D01*
X1000D01*
Y49965D01*
X1441Y50201D01*
X1524Y50145D01*
X2500Y49951D01*
X3475Y50145D01*
X4302Y50698D01*
X4855Y51525D01*
X5038Y52444D01*
X10258D01*
X10410Y51944D01*
D02*
G37*
G36*
X27000Y58134D02*
Y56750D01*
X35000D01*
Y57305D01*
X35462Y57497D01*
X35971Y56988D01*
Y49437D01*
X34433D01*
Y38972D01*
X40567D01*
Y38972D01*
X41017Y39159D01*
X41713Y38464D01*
X41521Y38002D01*
X20500D01*
X20494Y38017D01*
X19853Y38853D01*
X19017Y39494D01*
X18044Y39897D01*
X17000Y40034D01*
X15956Y39897D01*
X14983Y39494D01*
X14147Y38853D01*
X14003Y38665D01*
X13529Y38826D01*
Y41000D01*
X13413Y41585D01*
X13081Y42081D01*
X10695Y44468D01*
X10897Y44956D01*
X11034Y46000D01*
X10897Y47044D01*
X10822Y47225D01*
X11204Y47609D01*
X12000Y47451D01*
X12796Y47609D01*
X13178Y47225D01*
X13103Y47044D01*
X13064Y46750D01*
X16250D01*
Y49936D01*
X15956Y49897D01*
X14983Y49494D01*
X14954Y49472D01*
X14500Y49754D01*
X14549Y50000D01*
X14485Y50322D01*
X16607Y52444D01*
X20462D01*
Y54671D01*
X22250D01*
X22836Y54787D01*
X23332Y55119D01*
X26538Y58325D01*
X27000Y58134D01*
D02*
G37*
G36*
X74471Y25866D02*
Y12633D01*
X73866Y12029D01*
X69136D01*
X68551Y11913D01*
X68055Y11581D01*
X65753Y9280D01*
X65109Y9343D01*
X64802Y9802D01*
X63976Y10355D01*
X63000Y10549D01*
X62024Y10355D01*
X61198Y9802D01*
X61015Y9529D01*
X57134D01*
X54581Y12081D01*
X54488Y12144D01*
X54639Y12644D01*
X56262D01*
Y18922D01*
X56724Y19113D01*
X58538Y17299D01*
Y12644D01*
X65262D01*
Y13971D01*
X69015D01*
X69198Y13698D01*
X70025Y13145D01*
X71000Y12951D01*
X71975Y13145D01*
X72802Y13698D01*
X73355Y14525D01*
X73549Y15500D01*
X73355Y16476D01*
X72802Y17302D01*
X71975Y17855D01*
X71000Y18049D01*
X70025Y17855D01*
X69198Y17302D01*
X69015Y17029D01*
X65262D01*
Y20156D01*
X60007D01*
X57381Y22781D01*
X56885Y23113D01*
X56300Y23229D01*
X52020D01*
Y26246D01*
X55752D01*
Y25926D01*
X61752D01*
Y26087D01*
X62252Y26137D01*
X62335Y25719D01*
X62667Y25223D01*
X64471Y23419D01*
X64967Y23087D01*
X65552Y22971D01*
X69015D01*
X69198Y22698D01*
X70025Y22145D01*
X71000Y21951D01*
X71975Y22145D01*
X72802Y22698D01*
X73355Y23525D01*
X73549Y24500D01*
X73355Y25475D01*
X73135Y25805D01*
X73370Y26246D01*
X74091D01*
X74471Y25866D01*
D02*
G37*
G36*
X37382Y26363D02*
X37967Y26246D01*
X51000D01*
Y20156D01*
X49538D01*
Y15529D01*
X42054D01*
X41819Y15970D01*
X41855Y16025D01*
X41900Y16250D01*
X39500D01*
Y17750D01*
X42132D01*
X42802Y18198D01*
X43355Y19025D01*
X43400Y19250D01*
X41000D01*
Y20000D01*
X40250D01*
Y22400D01*
X40025Y22355D01*
X39198Y21802D01*
X39135Y21709D01*
X38475Y22150D01*
X38250Y22195D01*
Y19795D01*
X36750D01*
Y22195D01*
X36525Y22150D01*
X35865Y21709D01*
X35802Y21802D01*
X34975Y22355D01*
X34750Y22400D01*
Y20000D01*
X34000D01*
Y19250D01*
X31600D01*
X31645Y19025D01*
X32198Y18198D01*
X32868Y17750D01*
X35500D01*
Y16250D01*
X33100D01*
X33145Y16025D01*
X33698Y15198D01*
X33969Y15016D01*
X34018Y14518D01*
X34000Y14500D01*
Y10546D01*
X33988Y10488D01*
X33500Y10000D01*
X21000D01*
Y12000D01*
Y16837D01*
X30663Y26500D01*
X37176D01*
X37382Y26363D01*
D02*
G37*
G36*
X24425Y60538D02*
X21617Y57729D01*
X20462D01*
Y59956D01*
X13738D01*
Y53901D01*
X12322Y52485D01*
X12000Y52549D01*
X11962Y52542D01*
X11462Y52952D01*
Y59956D01*
X4738D01*
Y56901D01*
X2822Y54985D01*
X2500Y55049D01*
X1524Y54855D01*
X1441Y54799D01*
X1000Y55035D01*
Y61000D01*
X24234D01*
X24425Y60538D01*
D02*
G37*
%LPC*%
G36*
X71000Y60035D02*
X69956Y59897D01*
X68983Y59494D01*
X68147Y58853D01*
X67506Y58017D01*
X67103Y57044D01*
X66966Y56000D01*
X67103Y54956D01*
X67506Y53983D01*
X68147Y53147D01*
X68983Y52506D01*
X69956Y52103D01*
X71000Y51965D01*
X72044Y52103D01*
X73017Y52506D01*
X73853Y53147D01*
X74494Y53983D01*
X74897Y54956D01*
X75034Y56000D01*
X74897Y57044D01*
X74494Y58017D01*
X73853Y58853D01*
X73017Y59494D01*
X72044Y59897D01*
X71000Y60035D01*
D02*
G37*
G36*
X86700Y48794D02*
X85822Y48619D01*
X85078Y48122D01*
X84581Y47378D01*
X84406Y46500D01*
X84581Y45622D01*
X85078Y44878D01*
X85822Y44381D01*
X86700Y44206D01*
X87578Y44381D01*
X88322Y44878D01*
X88819Y45622D01*
X88994Y46500D01*
X88819Y47378D01*
X88322Y48122D01*
X87578Y48619D01*
X86700Y48794D01*
D02*
G37*
G36*
X31512Y43455D02*
X29195D01*
Y38972D01*
X31512D01*
Y43455D01*
D02*
G37*
G36*
X16250Y45250D02*
X13064D01*
X13103Y44956D01*
X13506Y43983D01*
X14147Y43147D01*
X14983Y42506D01*
X15956Y42103D01*
X16250Y42064D01*
Y45250D01*
D02*
G37*
G36*
X27695Y43455D02*
X25378D01*
Y38972D01*
X27695D01*
Y43455D01*
D02*
G37*
G36*
X20936Y45250D02*
X17750D01*
Y42064D01*
X18044Y42103D01*
X19017Y42506D01*
X19853Y43147D01*
X20494Y43983D01*
X20897Y44956D01*
X20936Y45250D01*
D02*
G37*
G36*
X30250Y55250D02*
X27000D01*
Y52000D01*
X30250D01*
Y55250D01*
D02*
G37*
G36*
X35000D02*
X31750D01*
Y52000D01*
X35000D01*
Y55250D01*
D02*
G37*
G36*
X17750Y49936D02*
Y46750D01*
X20936D01*
X20897Y47044D01*
X20494Y48017D01*
X19853Y48853D01*
X19017Y49494D01*
X18044Y49897D01*
X17750Y49936D01*
D02*
G37*
G36*
X27695Y49437D02*
X25378D01*
Y44955D01*
X27695D01*
Y49437D01*
D02*
G37*
G36*
X31512D02*
X29195D01*
Y44955D01*
X31512D01*
Y49437D01*
D02*
G37*
G36*
X33250Y22400D02*
X33024Y22355D01*
X32198Y21802D01*
X31645Y20976D01*
X31600Y20750D01*
X33250D01*
Y22400D01*
D02*
G37*
G36*
X41750D02*
Y20750D01*
X43400D01*
X43355Y20976D01*
X42802Y21802D01*
X41976Y22355D01*
X41750Y22400D01*
D02*
G37*
%LPD*%
D16*
X36500Y10500D02*
Y10743D01*
X37500Y44000D02*
X38339D01*
X91350Y20150D02*
X91500Y20000D01*
X39405Y21700D02*
X56300D01*
X61750Y16250D01*
X28500Y41200D02*
Y42500D01*
X62800Y15500D02*
X71000D01*
X65552Y24500D02*
X71000D01*
X28400Y41100D02*
X28500Y41200D01*
X24000Y31000D02*
X27075Y34075D01*
X26550Y60500D02*
X34621D01*
X22250Y56200D02*
X26550Y60500D01*
X17100Y56200D02*
X22250D01*
X12000Y50000D02*
X17100Y55100D01*
Y56000D01*
X37500Y19795D02*
X39405Y21700D01*
X81500Y23000D02*
X87800D01*
X91000Y19800D01*
X51000Y56000D02*
X60000D01*
X51000Y6000D02*
X52000Y5000D01*
X64243D01*
X2500Y52500D02*
X6000Y56000D01*
X7500D01*
X34621Y60500D02*
X37500Y57621D01*
X38339Y44000D02*
X43867Y38472D01*
X67248Y37224D02*
Y48752D01*
X60000Y56000D02*
X67248Y48752D01*
X30500Y28500D02*
X37243D01*
X19672Y21500D02*
X29097Y30925D01*
X17000Y16000D02*
X18000D01*
X11500Y21500D02*
X19672D01*
X12000Y33500D02*
Y41000D01*
Y33500D02*
X14500Y31000D01*
X24000D01*
X37500Y44205D02*
Y57621D01*
Y44000D02*
Y44205D01*
X60574Y30925D02*
X63748Y27751D01*
X58752Y30925D02*
X60574D01*
X93750Y43750D02*
X94000Y44000D01*
X85750Y43750D02*
X93750D01*
X82000Y40000D02*
X85750Y43750D01*
X67248Y34075D02*
X74925D01*
X71000Y6000D02*
X74500D01*
X66500Y7864D02*
X69136Y10500D01*
X64243Y5000D02*
X66500Y7257D01*
Y7864D01*
X69136Y10500D02*
X74500D01*
X74925Y34075D02*
X78000Y31000D01*
X74500Y6000D02*
X78000Y9500D01*
X74500Y10500D02*
X76000Y12000D01*
Y26500D01*
X74724Y27776D02*
X76000Y26500D01*
X67248Y27776D02*
X74724D01*
X63748Y26304D02*
X65552Y24500D01*
X63748Y26304D02*
Y27751D01*
X61900Y16400D02*
X62800Y15500D01*
X18000Y16000D02*
X30500Y28500D01*
X62252Y34100D02*
Y38696D01*
X78000Y9500D02*
Y31000D01*
X37243Y28500D02*
X37967Y27776D01*
X58752D01*
X61373Y39574D02*
X62252Y38696D01*
X29097Y30925D02*
X58752D01*
X27075Y34075D02*
X58752D01*
X43867Y38472D02*
X49243D01*
X50345Y39574D01*
X50072Y36472D02*
X50824Y37224D01*
X58752D01*
X50345Y39574D02*
X61373D01*
X65426Y30925D02*
X67248D01*
X62252Y34100D02*
X65426Y30925D01*
X17472Y36472D02*
X50072D01*
X17000Y36000D02*
X17472Y36472D01*
X7000Y26000D02*
X11500Y21500D01*
X7000Y46000D02*
X12000Y41000D01*
X37500Y19795D02*
Y22500D01*
X36500Y10743D02*
X39757Y14000D01*
X52400D01*
X53700Y15300D01*
X53500Y11000D02*
X56500Y8000D01*
X63000D01*
X41000Y11000D02*
X53500D01*
D17*
X35000Y22000D02*
X37205Y19795D01*
X25000Y10243D02*
X34553Y19795D01*
X22000Y50650D02*
X27825Y44825D01*
X27000Y56000D02*
X31000D01*
X7000Y15100D02*
Y16000D01*
X22000Y51000D02*
X27000Y56000D01*
X22000Y50650D02*
Y51000D01*
X25000Y10000D02*
Y10243D01*
X12100Y10000D02*
X25000D01*
X46760Y44000D02*
X55000D01*
X46555Y44205D02*
X46760Y44000D01*
X7000Y15100D02*
X12100Y10000D01*
X17000Y46000D02*
X22000Y51000D01*
D18*
X95867Y58098D02*
X97400D01*
Y55799D01*
X95867D01*
X97400Y56949D02*
X96634D01*
X93568Y57715D02*
X93951Y58098D01*
X94718D01*
X95101Y57715D01*
Y57332D01*
X94718Y56949D01*
X93951D01*
X93568Y56565D01*
Y56182D01*
X93951Y55799D01*
X94718D01*
X95101Y56182D01*
X92801Y55799D02*
Y58098D01*
X91652D01*
X91269Y57715D01*
Y56949D01*
X91652Y56565D01*
X92801D01*
X88203Y58098D02*
X86670D01*
X87436D01*
Y55799D01*
X84754D02*
X85520D01*
X85904Y56182D01*
Y56949D01*
X85520Y57332D01*
X84754D01*
X84371Y56949D01*
Y56565D01*
X85904D01*
X83604Y57332D02*
Y55799D01*
Y56565D01*
X83221Y56949D01*
X82838Y57332D01*
X82455D01*
X81305Y55799D02*
Y57332D01*
X80922D01*
X80539Y56949D01*
Y55799D01*
Y56949D01*
X80156Y57332D01*
X79772Y56949D01*
Y55799D01*
X97400Y53133D02*
X96634Y51600D01*
X95867Y53133D01*
X93568Y51600D02*
X95101D01*
X93568Y53133D01*
Y53516D01*
X93951Y53899D01*
X94718D01*
X95101Y53516D01*
X88969Y53899D02*
X90502D01*
Y52750D01*
X89736Y53133D01*
X89353D01*
X88969Y52750D01*
Y51983D01*
X89353Y51600D01*
X90119D01*
X90502Y51983D01*
X88203Y51600D02*
X86670Y53133D01*
X84371Y51600D02*
X85904D01*
X84371Y53133D01*
Y53516D01*
X84754Y53899D01*
X85520D01*
X85904Y53516D01*
X83604D02*
X83221Y53899D01*
X82455D01*
X82072Y53516D01*
Y51983D01*
X82455Y51600D01*
X83221D01*
X83604Y51983D01*
Y53516D01*
X81305Y51600D02*
X80539D01*
X80922D01*
Y53899D01*
X81305Y53516D01*
X79389Y53899D02*
X77856D01*
Y53516D01*
X79389Y51983D01*
Y51600D01*
X0Y0D02*
Y62000D01*
Y0D02*
X100000D01*
Y62000D01*
X99500D02*
X100000D01*
X0D02*
X99500D01*
D19*
X17000Y16000D02*
D03*
D20*
Y26000D02*
D03*
Y46000D02*
D03*
Y36000D02*
D03*
X7000D02*
D03*
Y46000D02*
D03*
Y26000D02*
D03*
Y16000D02*
D03*
X71000Y56000D02*
D03*
X51000D02*
D03*
X71000Y6000D02*
D03*
X51000D02*
D03*
D21*
X31000Y56000D02*
D03*
Y6000D02*
D03*
D22*
X97300Y46500D02*
D03*
X86700D02*
D03*
X97300Y15500D02*
D03*
X86700D02*
D03*
D23*
X36500Y10500D02*
D03*
X71000Y15500D02*
D03*
Y24500D02*
D03*
X29000Y41500D02*
D03*
Y44500D02*
D03*
X95500Y31000D02*
D03*
X69000Y20000D02*
D03*
X82000Y5000D02*
D03*
X81500Y23000D02*
D03*
X63000Y8000D02*
D03*
X2500Y52500D02*
D03*
X12000Y50000D02*
D03*
X37500Y44000D02*
D03*
X91500Y11000D02*
D03*
X94000Y44000D02*
D03*
X82000Y40000D02*
D03*
X55000Y44000D02*
D03*
X70500Y45000D02*
D03*
X64000Y58000D02*
D03*
X37500Y19795D02*
D03*
X35500Y17000D02*
D03*
X41000Y20000D02*
D03*
X34000D02*
D03*
X39500Y17000D02*
D03*
X41000Y11000D02*
D03*
D24*
X17100Y56200D02*
D03*
X8100D02*
D03*
X61900Y16400D02*
D03*
X52900D02*
D03*
D25*
X67248Y37224D02*
D03*
Y34075D02*
D03*
Y30925D02*
D03*
Y27776D02*
D03*
X58752Y34075D02*
D03*
Y30925D02*
D03*
Y37224D02*
D03*
Y27776D02*
D03*
D26*
X91000Y10800D02*
D03*
Y19800D02*
D03*
D27*
X37500Y44205D02*
D03*
X46555D02*
D03*
D28*
X37500Y19795D02*
D03*
D29*
X28445Y44205D02*
D03*
M02*
