M48
;Layer_Color=9474304
;FILE_FORMAT=2:5
INCH,LZ
;TYPE=PLATED
T1F00S00C0.02000
T2F00S00C0.02500
T3F00S00C0.03700
T4F00S00C0.04000
;TYPE=NON_PLATED
T5F00S00C0.02500
%
T01
X00915Y0011
X00815Y0023
X0082Y004
X0094Y0044
X0055
X00375
X0029Y00445
Y00415
X0012Y005
X00025Y00525
X0034Y002
X00375Y0019795
X0041Y002
X00395Y0017
X00355
X00365Y00105
X0041Y0011
X0063Y0008
X0071Y00155
Y00245
T02
X0082Y0005
X00955Y0031
X0069Y002
X00705Y0045
X0064Y0058
T03
X0031Y0006
X0051
X0071
Y0056
X0051
X0031
T04
X0007Y0016
X0017
Y0026
Y0036
Y0046
X0007
Y0036
Y0026
T05
X00867Y00155
X00973
Y00465
X00867
M30
