G04 Layer_Color=8388736*
%FSLAX25Y25*%
%MOIN*%
G70*
G01*
G75*
%ADD18C,0.00600*%
%ADD23C,0.03000*%
%ADD33R,0.06800X0.09800*%
%ADD34R,0.04737X0.07099*%
%ADD35O,0.05800X0.03800*%
%ADD36R,0.05800X0.03800*%
%ADD37R,0.04000X0.08800*%
%ADD38R,0.04737X0.06706*%
%ADD39R,0.06800X0.06800*%
%ADD40C,0.06800*%
%ADD41R,0.06800X0.06800*%
%ADD42C,0.03800*%
D18*
X0Y0D02*
Y62000D01*
Y0D02*
X100000D01*
Y62000D01*
X99500D02*
X100000D01*
X0D02*
X99500D01*
D23*
X97300Y46500D02*
D03*
X86700D02*
D03*
X97300Y15500D02*
D03*
X86700D02*
D03*
D33*
X45000Y41500D02*
D03*
X30000D02*
D03*
Y27500D02*
D03*
X45000D02*
D03*
D34*
X58000Y26500D02*
D03*
X65500D02*
D03*
X61800Y18100D02*
D03*
D35*
X16000Y58100D02*
D03*
Y53000D02*
D03*
X8500D02*
D03*
D36*
Y58100D02*
D03*
D37*
X95500Y56500D02*
D03*
X88500D02*
D03*
X95500Y36500D02*
D03*
X88500D02*
D03*
X95500Y25500D02*
D03*
X88500D02*
D03*
X95500Y5500D02*
D03*
X88500D02*
D03*
D38*
X22000Y6000D02*
D03*
X14000D02*
D03*
D39*
X17000Y16000D02*
D03*
D40*
Y26000D02*
D03*
Y46000D02*
D03*
Y36000D02*
D03*
X7000D02*
D03*
Y46000D02*
D03*
Y26000D02*
D03*
Y16000D02*
D03*
X71000Y56000D02*
D03*
X51000D02*
D03*
X71000Y6000D02*
D03*
X51000D02*
D03*
D41*
X31000Y56000D02*
D03*
Y6000D02*
D03*
D42*
X29000Y41500D02*
D03*
Y44500D02*
D03*
X37500Y19795D02*
D03*
X35500Y17000D02*
D03*
X41000Y20000D02*
D03*
X34000D02*
D03*
X39500Y17000D02*
D03*
M02*
