G04 Layer_Color=65535*
%FSLAX25Y25*%
%MOIN*%
G70*
G01*
G75*
%ADD18C,0.00600*%
%ADD30C,0.00591*%
%ADD31C,0.00394*%
%ADD32C,0.00700*%
D18*
X78500Y25500D02*
X84500D01*
X78500Y13500D02*
Y25500D01*
Y36500D02*
Y45500D01*
Y36500D02*
X84500D01*
X51000Y40500D02*
Y42500D01*
X50000Y41500D02*
X52000D01*
X45000Y48000D02*
X49000D01*
Y35000D02*
Y48000D01*
X45000Y35000D02*
X49000D01*
X26000Y48000D02*
X30000D01*
X26000Y35000D02*
X30000D01*
X26000D02*
Y48000D01*
X8500Y60600D02*
X16000D01*
X8500Y50600D02*
X16000D01*
X98000Y56500D02*
X99000D01*
X97000Y49000D02*
X99000D01*
X97000Y48500D02*
Y49000D01*
Y44000D02*
Y44500D01*
Y44000D02*
X99000D01*
Y36500D02*
Y56500D01*
X98000Y36500D02*
X99000D01*
X91000Y56500D02*
X93000D01*
X84500D02*
X86000D01*
X91000Y36500D02*
X93000D01*
X84500D02*
Y56500D01*
Y36500D02*
X86000D01*
X98000Y25500D02*
X99000D01*
X97000Y18000D02*
X99000D01*
X97000Y17500D02*
Y18000D01*
Y13000D02*
Y13500D01*
Y13000D02*
X99000D01*
Y5500D02*
Y25500D01*
X98000Y5500D02*
X99000D01*
X91000Y25500D02*
X93000D01*
X84500D02*
X86000D01*
X91000Y5500D02*
X93000D01*
X84500D02*
Y25500D01*
Y5500D02*
X86000D01*
X51000Y26500D02*
Y28500D01*
X50000Y27500D02*
X52000D01*
X26000Y21000D02*
X30000D01*
X26000D02*
Y34000D01*
X30000D01*
X45000D02*
X49000D01*
Y21000D02*
Y34000D01*
X45000Y21000D02*
X49000D01*
X50417Y22666D02*
X50001Y22250D01*
Y21417D01*
X50417Y21000D01*
X52083D01*
X52500Y21417D01*
Y22250D01*
X52083Y22666D01*
X52500Y23499D02*
Y24332D01*
Y23916D01*
X50001D01*
X50417Y23499D01*
Y36666D02*
X50001Y36250D01*
Y35416D01*
X50417Y35000D01*
X52083D01*
X52500Y35416D01*
Y36250D01*
X52083Y36666D01*
X52500Y39165D02*
Y37499D01*
X50834Y39165D01*
X50417D01*
X50001Y38749D01*
Y37916D01*
X50417Y37499D01*
X4583Y57666D02*
X2917D01*
X2501Y57250D01*
Y56416D01*
X2917Y56000D01*
X4583D01*
X5000Y56416D01*
Y57250D01*
X4167Y56833D02*
X5000Y57666D01*
Y57250D02*
X4583Y57666D01*
X2917Y58499D02*
X2501Y58916D01*
Y59749D01*
X2917Y60165D01*
X3334D01*
X3750Y59749D01*
Y59332D01*
Y59749D01*
X4167Y60165D01*
X4583D01*
X5000Y59749D01*
Y58916D01*
X4583Y58499D01*
X58284Y15266D02*
X56617D01*
X56201Y14850D01*
Y14017D01*
X56617Y13600D01*
X58284D01*
X58700Y14017D01*
Y14850D01*
X57867Y14433D02*
X58700Y15266D01*
Y14850D02*
X58284Y15266D01*
X58700Y16099D02*
Y16932D01*
Y16516D01*
X56201D01*
X56617Y16099D01*
X79500Y52000D02*
X76501D01*
Y53500D01*
X77001Y53999D01*
X78000D01*
X78500Y53500D01*
Y52000D01*
Y53000D02*
X79500Y53999D01*
X77001Y56998D02*
X76501Y56499D01*
Y55499D01*
X77001Y54999D01*
X77501D01*
X78000Y55499D01*
Y56499D01*
X78500Y56998D01*
X79000D01*
X79500Y56499D01*
Y55499D01*
X79000Y54999D01*
X76501Y57998D02*
Y59997D01*
Y58998D01*
X79500D01*
X59000Y53500D02*
X56001D01*
Y55000D01*
X56501Y55499D01*
X57500D01*
X58000Y55000D01*
Y53500D01*
X59000Y58498D02*
Y56499D01*
X57001Y58498D01*
X56501D01*
X56001Y57999D01*
Y56999D01*
X56501Y56499D01*
X76501Y3500D02*
Y5499D01*
Y4500D01*
X79500D01*
X77501Y6499D02*
X79500Y8498D01*
X78500Y7499D01*
X77501Y8498D01*
X79500Y6499D01*
X59500Y4000D02*
X56501D01*
Y5500D01*
X57001Y5999D01*
X58000D01*
X58500Y5500D01*
Y4000D01*
Y5000D02*
X59500Y5999D01*
X57501Y6999D02*
X59500Y8998D01*
X58500Y7999D01*
X57501Y8998D01*
X59500Y6999D01*
X36001Y4999D02*
Y3000D01*
X37501D01*
X37001Y4000D01*
Y4499D01*
X37501Y4999D01*
X38500D01*
X39000Y4499D01*
Y3500D01*
X38500Y3000D01*
X36001Y5999D02*
X38000D01*
X39000Y6999D01*
X38000Y7998D01*
X36001D01*
X36501Y53999D02*
X36001Y53500D01*
Y52500D01*
X36501Y52000D01*
X38500D01*
X39000Y52500D01*
Y53500D01*
X38500Y53999D01*
X37501D01*
Y53000D01*
X39000Y54999D02*
X36001D01*
X39000Y56998D01*
X36001D01*
Y57998D02*
X39000D01*
Y59498D01*
X38500Y59997D01*
X36501D01*
X36001Y59498D01*
Y57998D01*
X2000Y6999D02*
Y4000D01*
X3999D01*
X4999Y6999D02*
Y5000D01*
X5999Y4000D01*
X6998Y5000D01*
Y6999D01*
X7998D02*
Y4000D01*
X9498D01*
X9997Y4500D01*
Y6499D01*
X9498Y6999D01*
X7998D01*
X0Y0D02*
Y62000D01*
Y0D02*
X100000D01*
Y62000D01*
X99500D02*
X100000D01*
X0D02*
X99500D01*
D30*
X2350Y11350D02*
X21650D01*
Y50650D01*
X2350D02*
X21650D01*
X2350Y11350D02*
Y50650D01*
X57400Y20400D02*
Y22500D01*
Y20400D02*
X59000D01*
X60500Y25900D02*
X63000D01*
X64550Y20400D02*
X66200D01*
Y22550D01*
D31*
X17050Y6000D02*
X18950Y7900D01*
Y4000D02*
Y7900D01*
X17050Y3900D02*
Y8000D01*
Y5900D02*
Y6000D01*
X17500Y1850D02*
X18800Y3150D01*
X17500Y1850D02*
X17750Y2600D01*
X17500Y1850D02*
X18300Y2050D01*
X16700Y5950D02*
X19400D01*
X17050Y5900D02*
X18950Y4000D01*
X16300Y1950D02*
X17500Y3150D01*
X16300Y1950D02*
X17100Y2200D01*
X16300Y1950D02*
X16500Y2650D01*
D32*
X74001Y14500D02*
X77000D01*
Y16000D01*
X76500Y16499D01*
X76000D01*
X75501Y16000D01*
Y14500D01*
Y16000D01*
X75001Y16499D01*
X74501D01*
X74001Y16000D01*
Y14500D01*
Y18999D02*
Y17999D01*
X74501Y17499D01*
X76500D01*
X77000Y17999D01*
Y18999D01*
X76500Y19498D01*
X74501D01*
X74001Y18999D01*
Y21998D02*
Y20998D01*
X74501Y20498D01*
X76500D01*
X77000Y20998D01*
Y21998D01*
X76500Y22497D01*
X74501D01*
X74001Y21998D01*
Y23497D02*
Y25496D01*
Y24497D01*
X77000D01*
Y37000D02*
X74001D01*
Y38500D01*
X74501Y38999D01*
X75501D01*
X76000Y38500D01*
Y37000D01*
Y38000D02*
X77000Y38999D01*
X74501Y41998D02*
X74001Y41499D01*
Y40499D01*
X74501Y39999D01*
X75001D01*
X75501Y40499D01*
Y41499D01*
X76000Y41998D01*
X76500D01*
X77000Y41499D01*
Y40499D01*
X76500Y39999D01*
X74001Y42998D02*
Y44997D01*
Y43998D01*
X77000D01*
M02*
