G04 Layer_Color=3407820*
%FSLAX25Y25*%
%MOIN*%
G70*
G01*
G75*
%ADD18C,0.00600*%
%ADD30C,0.00591*%
%ADD32C,0.00700*%
%ADD49C,0.00984*%
%ADD50C,0.00787*%
D18*
X64500Y42500D02*
Y44999D01*
X63250D01*
X62834Y44583D01*
Y43750D01*
X63250Y43333D01*
X64500D01*
X63667D02*
X62834Y42500D01*
X60751D02*
Y44999D01*
X62001Y43750D01*
X60335D01*
X22100Y54200D02*
X24599D01*
Y55450D01*
X24183Y55866D01*
X23350D01*
X22933Y55450D01*
Y54200D01*
Y55033D02*
X22100Y55866D01*
X24183Y56699D02*
X24599Y57116D01*
Y57949D01*
X24183Y58365D01*
X23766D01*
X23350Y57949D01*
Y57532D01*
Y57949D01*
X22933Y58365D01*
X22516D01*
X22100Y57949D01*
Y57116D01*
X22516Y56699D01*
X92500Y25300D02*
Y27799D01*
X91250D01*
X90834Y27383D01*
Y26550D01*
X91250Y26133D01*
X92500D01*
X91667D02*
X90834Y25300D01*
X88335D02*
X90001D01*
X88335Y26966D01*
Y27383D01*
X88751Y27799D01*
X89584D01*
X90001Y27383D01*
X45700Y14600D02*
X48199D01*
Y15850D01*
X47783Y16266D01*
X46950D01*
X46533Y15850D01*
Y14600D01*
Y15433D02*
X45700Y16266D01*
Y17099D02*
Y17932D01*
Y17516D01*
X48199D01*
X47783Y17099D01*
X26834Y21417D02*
Y23083D01*
X27250Y23499D01*
X28084D01*
X28500Y23083D01*
Y21417D01*
X28084Y21000D01*
X27250D01*
X27667Y21833D02*
X26834Y21000D01*
X27250D02*
X26834Y21417D01*
X24751Y21000D02*
Y23499D01*
X26001Y22250D01*
X24335D01*
X0Y0D02*
Y62000D01*
Y0D02*
X100000D01*
Y62000D01*
X99500D02*
X100000D01*
X0D02*
X99500D01*
D30*
X18050Y60200D02*
X20600D01*
Y52150D02*
Y60200D01*
X18150Y52150D02*
X20600D01*
X4600Y60200D02*
X7100D01*
X4600Y52150D02*
X7100D01*
X4600D02*
Y60200D01*
X58000Y41075D02*
X68000D01*
Y39500D02*
Y41075D01*
Y23925D02*
Y25500D01*
X58000Y39500D02*
Y41075D01*
Y23925D02*
X68000D01*
X58000D02*
Y25500D01*
X95050Y20850D02*
Y23300D01*
Y7300D02*
Y9800D01*
X87000Y23300D02*
X95050D01*
X87000Y20750D02*
Y23300D01*
Y7300D02*
X95050D01*
X87000D02*
Y9800D01*
X62900Y20450D02*
X65400D01*
Y12400D02*
Y20450D01*
X62900Y12400D02*
X65400D01*
X49400Y20450D02*
X51850D01*
X49400Y12400D02*
X51950D01*
X49400D02*
Y20450D01*
D32*
X76000Y51000D02*
Y61000D01*
X26000D02*
X76000D01*
X26000Y51000D02*
X76000D01*
X26000D02*
Y61000D01*
X76000Y1000D02*
Y11000D01*
X26000D02*
X76000D01*
X26000Y1000D02*
X76000D01*
X26000D02*
Y11000D01*
D49*
X28937Y50602D02*
G03*
X28937Y50602I-492J0D01*
G01*
D50*
X50689Y25602D02*
Y38398D01*
X24311D02*
X50689D01*
X24311Y25602D02*
X50689D01*
X24311D02*
Y38398D01*
M02*
